<svg width="64" height="64" viewBox="0 0 64 64" fill="none" xmlns="http://www.w3.org/2000/svg">
<path d="M48.8679 57L15.1288 57C14.2987 56.9991 13.5029 56.6685 12.9162 56.0809C12.3295 55.4932 12 54.6965 12 53.8658L12 11.1342C12 10.3035 12.3295 9.50683 12.9162 8.91915C13.5029 8.33148 14.2987 8.00088 15.1288 8L41.2552 8L52 18.3032L52 53.8658C52 54.6971 51.67 55.4943 51.0826 56.082C50.4952 56.6698 49.6986 57 48.8679 57V57Z" fill="#C8C2E9"/>
<path d="M44.2065 19C43.3561 19 42.5405 18.6475 41.9392 18.0199C41.3378 17.3924 41 16.5413 41 15.6539L41 8L52 19L44.2065 19Z" fill="#8A87B2"/>
<path d="M44.3493 43L19.6507 43C19.4781 43 19.3126 43.0527 19.1906 43.1464C19.0685 43.2402 19 43.3674 19 43.5C19 43.6326 19.0685 43.7598 19.1906 43.8536C19.3126 43.9473 19.4781 44 19.6507 44L44.3493 44C44.5219 44 44.6874 43.9473 44.8094 43.8536C44.9314 43.7598 45 43.6326 45 43.5C45 43.3674 44.9314 43.2402 44.8094 43.1464C44.6874 43.0527 44.5219 43 44.3493 43V43Z" fill="#323150"/>
<path d="M39.3573 38L19.6427 38C19.4722 38 19.3088 38.0527 19.1882 38.1464C19.0677 38.2402 19 38.3674 19 38.5C19 38.6326 19.0677 38.7598 19.1882 38.8536C19.3088 38.9473 19.4722 39 19.6427 39L39.3573 39C39.5278 39 39.6912 38.9473 39.8118 38.8536C39.9323 38.7598 40 38.6326 40 38.5C40 38.3674 39.9323 38.2402 39.8118 38.1464C39.6912 38.0527 39.5278 38 39.3573 38V38Z" fill="#323150"/>
<path d="M39.3573 33L19.6427 33C19.4722 33 19.3088 33.0527 19.1882 33.1464C19.0677 33.2402 19 33.3674 19 33.5C19 33.6326 19.0677 33.7598 19.1882 33.8536C19.3088 33.9473 19.4722 34 19.6427 34L39.3573 34C39.5278 34 39.6912 33.9473 39.8118 33.8536C39.9323 33.7598 40 33.6326 40 33.5C40 33.3674 39.9323 33.2402 39.8118 33.1464C39.6912 33.0527 39.5278 33 39.3573 33V33Z" fill="#323150"/>
<path d="M39.3573 23L19.6427 23C19.4722 23 19.3088 23.0527 19.1882 23.1464C19.0677 23.2402 19 23.3674 19 23.5C19 23.6326 19.0677 23.7598 19.1882 23.8536C19.3088 23.9473 19.4722 24 19.6427 24L39.3573 24C39.5278 24 39.6912 23.9473 39.8118 23.8536C39.9323 23.7598 40 23.6326 40 23.5C40 23.3674 39.9323 23.2402 39.8118 23.1464C39.6912 23.0527 39.5278 23 39.3573 23V23Z" fill="#323150"/>
<path d="M43.3428 28L19.6572 28C19.4829 28 19.3157 28.0527 19.1925 28.1464C19.0692 28.2402 19 28.3674 19 28.5C19 28.6326 19.0692 28.7598 19.1925 28.8536C19.3157 28.9473 19.4829 29 19.6572 29L43.3428 29C43.5171 29 43.6843 28.9473 43.8075 28.8536C43.9308 28.7598 44 28.6326 44 28.5C44 28.3674 43.9308 28.2402 43.8075 28.1464C43.6843 28.0527 43.5171 28 43.3428 28Z" fill="#323150"/>
</svg>
