<svg width="64" height="64" viewBox="0 0 64 64" fill="none" xmlns="http://www.w3.org/2000/svg">
<path opacity="0.2" d="M54.5 24H9.5C8.11929 24 7 25.1193 7 26.5V53.5C7 54.8807 8.11929 56 9.5 56H54.5C55.8807 56 57 54.8807 57 53.5V26.5C57 25.1193 55.8807 24 54.5 24Z" fill="black"/>
<path d="M7 44.5C7 45.885 8.115 47 9.5 47H54.5C55.885 47 57 45.885 57 44.5V17.5C57 16.115 55.885 15 54.5 15H29V12.5C29 11.115 27.885 10 26.5 10H9.5C8.115 10 7 11.115 7 12.5" fill="#3C93FF"/>
<path opacity="0.2" d="M54.5 22H9.5C8.11929 22 7 23.1193 7 24.5V51.5C7 52.8807 8.11929 54 9.5 54H54.5C55.8807 54 57 52.8807 57 51.5V24.5C57 23.1193 55.8807 22 54.5 22Z" fill="black"/>
<path d="M51.5 18H12.5C11.1193 18 10 19.1193 10 20.5V35.5C10 36.8807 11.1193 38 12.5 38H51.5C52.8807 38 54 36.8807 54 35.5V20.5C54 19.1193 52.8807 18 51.5 18Z" fill="white"/>
<path d="M54.5 23H9.5C8.11929 23 7 24.1193 7 25.5V52.5C7 53.8807 8.11929 55 9.5 55H54.5C55.8807 55 57 53.8807 57 52.5V25.5C57 24.1193 55.8807 23 54.5 23Z" fill="#4A9DFF"/>
<path opacity="0.1" d="M9.5 10C8.115 10 7 11.115 7 12.5V13.5C7 12.115 8.115 11 9.5 11H26.5C27.885 11 29 12.115 29 13.5V12.5C29 11.115 27.885 10 26.5 10H9.5ZM29 15V16H54.5C55.89 16 57 17.115 57 18.5V17.5C57 16.115 55.89 15 54.5 15H29Z" fill="white"/>
</svg>
